<mxfile host="app.diagrams.net" modified="2023-10-25T15:30:11.031Z" agent="Mozilla/5.0 (X11; Linux x86_64; rv:109.0) Gecko/20100101 Firefox/118.0" etag="c0O-fJcotTXCScNHP17k" version="22.0.8" type="github">
  <diagram name="Page-1" id="N5mjI6_Dp5-IDsh51bVN">
    <mxGraphModel dx="3457" dy="2409" grid="1" gridSize="10" guides="1" tooltips="1" connect="1" arrows="1" fold="1" page="1" pageScale="1" pageWidth="850" pageHeight="1100" math="0" shadow="0">
      <root>
        <mxCell id="0" />
        <mxCell id="1" parent="0" />
        <mxCell id="JXL4q3yM0kGkyvvFwsb1-5" value="Main table" style="shape=table;startSize=30;container=1;collapsible=0;childLayout=tableLayout;strokeColor=#d79b00;fontSize=16;fillColor=#ffe6cc;fillStyle=solid;gradientColor=none;fixedRows=0;backgroundOutline=0;autosize=0;fixedWidth=0;rounded=0;shadow=0;strokeWidth=2;perimeterSpacing=0;labelBackgroundColor=none;whiteSpace=wrap;fontColor=default;" vertex="1" parent="1">
          <mxGeometry x="-340" y="540" width="780" height="110" as="geometry" />
        </mxCell>
        <mxCell id="JXL4q3yM0kGkyvvFwsb1-6" value="" style="shape=tableRow;horizontal=0;startSize=0;swimlaneHead=0;swimlaneBody=0;strokeColor=inherit;top=0;left=0;bottom=0;right=0;collapsible=0;dropTarget=0;fillColor=none;points=[[0,0.5],[1,0.5]];portConstraint=eastwest;fontSize=16;" vertex="1" parent="JXL4q3yM0kGkyvvFwsb1-5">
          <mxGeometry y="30" width="780" height="38" as="geometry" />
        </mxCell>
        <mxCell id="JXL4q3yM0kGkyvvFwsb1-7" value="&lt;div&gt;Autegry_id&lt;/div&gt;" style="shape=partialRectangle;html=1;whiteSpace=wrap;connectable=0;strokeColor=inherit;overflow=hidden;fillColor=none;top=0;left=0;bottom=0;right=0;pointerEvents=1;fontSize=16;" vertex="1" parent="JXL4q3yM0kGkyvvFwsb1-6">
          <mxGeometry width="156" height="38" as="geometry">
            <mxRectangle width="156" height="38" as="alternateBounds" />
          </mxGeometry>
        </mxCell>
        <mxCell id="JXL4q3yM0kGkyvvFwsb1-8" value="datetime" style="shape=partialRectangle;html=1;whiteSpace=wrap;connectable=0;strokeColor=inherit;overflow=hidden;fillColor=none;top=0;left=0;bottom=0;right=0;pointerEvents=1;fontSize=16;" vertex="1" parent="JXL4q3yM0kGkyvvFwsb1-6">
          <mxGeometry x="156" width="155" height="38" as="geometry">
            <mxRectangle width="155" height="38" as="alternateBounds" />
          </mxGeometry>
        </mxCell>
        <mxCell id="JXL4q3yM0kGkyvvFwsb1-9" value="company" style="shape=partialRectangle;html=1;whiteSpace=wrap;connectable=0;strokeColor=inherit;overflow=hidden;fillColor=none;top=0;left=0;bottom=0;right=0;pointerEvents=1;fontSize=16;" vertex="1" parent="JXL4q3yM0kGkyvvFwsb1-6">
          <mxGeometry x="311" width="157" height="38" as="geometry">
            <mxRectangle width="157" height="38" as="alternateBounds" />
          </mxGeometry>
        </mxCell>
        <mxCell id="JXL4q3yM0kGkyvvFwsb1-26" value="request_id" style="shape=partialRectangle;html=1;whiteSpace=wrap;connectable=0;strokeColor=inherit;overflow=hidden;fillColor=none;top=0;left=0;bottom=0;right=0;pointerEvents=1;fontSize=16;" vertex="1" parent="JXL4q3yM0kGkyvvFwsb1-6">
          <mxGeometry x="468" width="156" height="38" as="geometry">
            <mxRectangle width="156" height="38" as="alternateBounds" />
          </mxGeometry>
        </mxCell>
        <mxCell id="JXL4q3yM0kGkyvvFwsb1-40" value="client_id" style="shape=partialRectangle;html=1;whiteSpace=wrap;connectable=0;strokeColor=inherit;overflow=hidden;fillColor=none;top=0;left=0;bottom=0;right=0;pointerEvents=1;fontSize=16;" vertex="1" parent="JXL4q3yM0kGkyvvFwsb1-6">
          <mxGeometry x="624" width="156" height="38" as="geometry">
            <mxRectangle width="156" height="38" as="alternateBounds" />
          </mxGeometry>
        </mxCell>
        <mxCell id="JXL4q3yM0kGkyvvFwsb1-10" value="" style="shape=tableRow;horizontal=0;startSize=0;swimlaneHead=0;swimlaneBody=0;strokeColor=inherit;top=0;left=0;bottom=0;right=0;collapsible=0;dropTarget=0;fillColor=none;points=[[0,0.5],[1,0.5]];portConstraint=eastwest;fontSize=16;" vertex="1" parent="JXL4q3yM0kGkyvvFwsb1-5">
          <mxGeometry y="68" width="780" height="42" as="geometry" />
        </mxCell>
        <mxCell id="JXL4q3yM0kGkyvvFwsb1-11" value="" style="shape=partialRectangle;html=1;whiteSpace=wrap;connectable=0;strokeColor=inherit;overflow=hidden;fillColor=none;top=0;left=0;bottom=0;right=0;pointerEvents=1;fontSize=16;" vertex="1" parent="JXL4q3yM0kGkyvvFwsb1-10">
          <mxGeometry width="156" height="42" as="geometry">
            <mxRectangle width="156" height="42" as="alternateBounds" />
          </mxGeometry>
        </mxCell>
        <mxCell id="JXL4q3yM0kGkyvvFwsb1-12" value="" style="shape=partialRectangle;html=1;whiteSpace=wrap;connectable=0;strokeColor=inherit;overflow=hidden;fillColor=none;top=0;left=0;bottom=0;right=0;pointerEvents=1;fontSize=16;" vertex="1" parent="JXL4q3yM0kGkyvvFwsb1-10">
          <mxGeometry x="156" width="155" height="42" as="geometry">
            <mxRectangle width="155" height="42" as="alternateBounds" />
          </mxGeometry>
        </mxCell>
        <mxCell id="JXL4q3yM0kGkyvvFwsb1-13" value="" style="shape=partialRectangle;html=1;whiteSpace=wrap;connectable=0;strokeColor=inherit;overflow=hidden;fillColor=none;top=0;left=0;bottom=0;right=0;pointerEvents=1;fontSize=16;" vertex="1" parent="JXL4q3yM0kGkyvvFwsb1-10">
          <mxGeometry x="311" width="157" height="42" as="geometry">
            <mxRectangle width="157" height="42" as="alternateBounds" />
          </mxGeometry>
        </mxCell>
        <mxCell id="JXL4q3yM0kGkyvvFwsb1-27" style="shape=partialRectangle;html=1;whiteSpace=wrap;connectable=0;strokeColor=inherit;overflow=hidden;fillColor=none;top=0;left=0;bottom=0;right=0;pointerEvents=1;fontSize=16;" vertex="1" parent="JXL4q3yM0kGkyvvFwsb1-10">
          <mxGeometry x="468" width="156" height="42" as="geometry">
            <mxRectangle width="156" height="42" as="alternateBounds" />
          </mxGeometry>
        </mxCell>
        <mxCell id="JXL4q3yM0kGkyvvFwsb1-41" style="shape=partialRectangle;html=1;whiteSpace=wrap;connectable=0;strokeColor=inherit;overflow=hidden;fillColor=none;top=0;left=0;bottom=0;right=0;pointerEvents=1;fontSize=16;" vertex="1" parent="JXL4q3yM0kGkyvvFwsb1-10">
          <mxGeometry x="624" width="156" height="42" as="geometry">
            <mxRectangle width="156" height="42" as="alternateBounds" />
          </mxGeometry>
        </mxCell>
        <mxCell id="JXL4q3yM0kGkyvvFwsb1-42" value="Application" style="shape=table;startSize=30;container=1;collapsible=0;childLayout=tableLayout;strokeColor=#d79b00;fontSize=16;fillColor=#ffe6cc;fillStyle=solid;gradientColor=none;fixedRows=0;backgroundOutline=0;autosize=0;fixedWidth=0;rounded=0;shadow=0;strokeWidth=2;perimeterSpacing=0;labelBackgroundColor=none;whiteSpace=wrap;fontColor=default;" vertex="1" parent="1">
          <mxGeometry x="-311" y="200" width="311" height="110" as="geometry" />
        </mxCell>
        <mxCell id="JXL4q3yM0kGkyvvFwsb1-43" value="" style="shape=tableRow;horizontal=0;startSize=0;swimlaneHead=0;swimlaneBody=0;strokeColor=inherit;top=0;left=0;bottom=0;right=0;collapsible=0;dropTarget=0;fillColor=none;points=[[0,0.5],[1,0.5]];portConstraint=eastwest;fontSize=16;" vertex="1" parent="JXL4q3yM0kGkyvvFwsb1-42">
          <mxGeometry y="30" width="311" height="38" as="geometry" />
        </mxCell>
        <mxCell id="JXL4q3yM0kGkyvvFwsb1-44" value="&lt;div&gt;Autegry_id&lt;/div&gt;" style="shape=partialRectangle;html=1;whiteSpace=wrap;connectable=0;strokeColor=inherit;overflow=hidden;fillColor=none;top=0;left=0;bottom=0;right=0;pointerEvents=1;fontSize=16;" vertex="1" parent="JXL4q3yM0kGkyvvFwsb1-43">
          <mxGeometry width="156" height="38" as="geometry">
            <mxRectangle width="156" height="38" as="alternateBounds" />
          </mxGeometry>
        </mxCell>
        <mxCell id="JXL4q3yM0kGkyvvFwsb1-45" value="APP_Columns" style="shape=partialRectangle;html=1;whiteSpace=wrap;connectable=0;strokeColor=inherit;overflow=hidden;fillColor=none;top=0;left=0;bottom=0;right=0;pointerEvents=1;fontSize=16;" vertex="1" parent="JXL4q3yM0kGkyvvFwsb1-43">
          <mxGeometry x="156" width="155" height="38" as="geometry">
            <mxRectangle width="155" height="38" as="alternateBounds" />
          </mxGeometry>
        </mxCell>
        <mxCell id="JXL4q3yM0kGkyvvFwsb1-49" value="" style="shape=tableRow;horizontal=0;startSize=0;swimlaneHead=0;swimlaneBody=0;strokeColor=inherit;top=0;left=0;bottom=0;right=0;collapsible=0;dropTarget=0;fillColor=none;points=[[0,0.5],[1,0.5]];portConstraint=eastwest;fontSize=16;" vertex="1" parent="JXL4q3yM0kGkyvvFwsb1-42">
          <mxGeometry y="68" width="311" height="42" as="geometry" />
        </mxCell>
        <mxCell id="JXL4q3yM0kGkyvvFwsb1-50" value="" style="shape=partialRectangle;html=1;whiteSpace=wrap;connectable=0;strokeColor=inherit;overflow=hidden;fillColor=none;top=0;left=0;bottom=0;right=0;pointerEvents=1;fontSize=16;" vertex="1" parent="JXL4q3yM0kGkyvvFwsb1-49">
          <mxGeometry width="156" height="42" as="geometry">
            <mxRectangle width="156" height="42" as="alternateBounds" />
          </mxGeometry>
        </mxCell>
        <mxCell id="JXL4q3yM0kGkyvvFwsb1-51" value="" style="shape=partialRectangle;html=1;whiteSpace=wrap;connectable=0;strokeColor=inherit;overflow=hidden;fillColor=none;top=0;left=0;bottom=0;right=0;pointerEvents=1;fontSize=16;" vertex="1" parent="JXL4q3yM0kGkyvvFwsb1-49">
          <mxGeometry x="156" width="155" height="42" as="geometry">
            <mxRectangle width="155" height="42" as="alternateBounds" />
          </mxGeometry>
        </mxCell>
        <mxCell id="JXL4q3yM0kGkyvvFwsb1-55" value="CCR_Active" style="shape=table;startSize=30;container=1;collapsible=0;childLayout=tableLayout;strokeColor=#d79b00;fontSize=16;fillColor=#ffe6cc;fillStyle=solid;gradientColor=none;fixedRows=0;backgroundOutline=0;autosize=0;fixedWidth=0;rounded=0;shadow=0;strokeWidth=2;perimeterSpacing=0;labelBackgroundColor=none;whiteSpace=wrap;fontColor=default;" vertex="1" parent="1">
          <mxGeometry x="60" y="200" width="380" height="110" as="geometry" />
        </mxCell>
        <mxCell id="JXL4q3yM0kGkyvvFwsb1-56" value="" style="shape=tableRow;horizontal=0;startSize=0;swimlaneHead=0;swimlaneBody=0;strokeColor=inherit;top=0;left=0;bottom=0;right=0;collapsible=0;dropTarget=0;fillColor=none;points=[[0,0.5],[1,0.5]];portConstraint=eastwest;fontSize=16;" vertex="1" parent="JXL4q3yM0kGkyvvFwsb1-55">
          <mxGeometry y="30" width="380" height="38" as="geometry" />
        </mxCell>
        <mxCell id="JXL4q3yM0kGkyvvFwsb1-57" value="&lt;div&gt;Autegry_id&lt;/div&gt;" style="shape=partialRectangle;html=1;whiteSpace=wrap;connectable=0;strokeColor=inherit;overflow=hidden;fillColor=none;top=0;left=0;bottom=0;right=0;pointerEvents=1;fontSize=16;" vertex="1" parent="JXL4q3yM0kGkyvvFwsb1-56">
          <mxGeometry width="191" height="38" as="geometry">
            <mxRectangle width="191" height="38" as="alternateBounds" />
          </mxGeometry>
        </mxCell>
        <mxCell id="JXL4q3yM0kGkyvvFwsb1-58" value="Ccr_active_etl1_columns" style="shape=partialRectangle;html=1;whiteSpace=wrap;connectable=0;strokeColor=inherit;overflow=hidden;fillColor=none;top=0;left=0;bottom=0;right=0;pointerEvents=1;fontSize=16;" vertex="1" parent="JXL4q3yM0kGkyvvFwsb1-56">
          <mxGeometry x="191" width="189" height="38" as="geometry">
            <mxRectangle width="189" height="38" as="alternateBounds" />
          </mxGeometry>
        </mxCell>
        <mxCell id="JXL4q3yM0kGkyvvFwsb1-59" value="" style="shape=tableRow;horizontal=0;startSize=0;swimlaneHead=0;swimlaneBody=0;strokeColor=inherit;top=0;left=0;bottom=0;right=0;collapsible=0;dropTarget=0;fillColor=none;points=[[0,0.5],[1,0.5]];portConstraint=eastwest;fontSize=16;" vertex="1" parent="JXL4q3yM0kGkyvvFwsb1-55">
          <mxGeometry y="68" width="380" height="42" as="geometry" />
        </mxCell>
        <mxCell id="JXL4q3yM0kGkyvvFwsb1-60" value="" style="shape=partialRectangle;html=1;whiteSpace=wrap;connectable=0;strokeColor=inherit;overflow=hidden;fillColor=none;top=0;left=0;bottom=0;right=0;pointerEvents=1;fontSize=16;" vertex="1" parent="JXL4q3yM0kGkyvvFwsb1-59">
          <mxGeometry width="191" height="42" as="geometry">
            <mxRectangle width="191" height="42" as="alternateBounds" />
          </mxGeometry>
        </mxCell>
        <mxCell id="JXL4q3yM0kGkyvvFwsb1-61" value="" style="shape=partialRectangle;html=1;whiteSpace=wrap;connectable=0;strokeColor=inherit;overflow=hidden;fillColor=none;top=0;left=0;bottom=0;right=0;pointerEvents=1;fontSize=16;" vertex="1" parent="JXL4q3yM0kGkyvvFwsb1-59">
          <mxGeometry x="191" width="189" height="42" as="geometry">
            <mxRectangle width="189" height="42" as="alternateBounds" />
          </mxGeometry>
        </mxCell>
        <mxCell id="JXL4q3yM0kGkyvvFwsb1-62" value="CCR_HST" style="shape=table;startSize=30;container=1;collapsible=0;childLayout=tableLayout;strokeColor=#d79b00;fontSize=16;fillColor=#ffe6cc;fillStyle=solid;gradientColor=none;fixedRows=0;backgroundOutline=0;autosize=0;fixedWidth=0;rounded=0;shadow=0;strokeWidth=2;perimeterSpacing=0;labelBackgroundColor=none;whiteSpace=wrap;fontColor=default;" vertex="1" parent="1">
          <mxGeometry x="520" y="200" width="380" height="110" as="geometry" />
        </mxCell>
        <mxCell id="JXL4q3yM0kGkyvvFwsb1-63" value="" style="shape=tableRow;horizontal=0;startSize=0;swimlaneHead=0;swimlaneBody=0;strokeColor=inherit;top=0;left=0;bottom=0;right=0;collapsible=0;dropTarget=0;fillColor=none;points=[[0,0.5],[1,0.5]];portConstraint=eastwest;fontSize=16;" vertex="1" parent="JXL4q3yM0kGkyvvFwsb1-62">
          <mxGeometry y="30" width="380" height="38" as="geometry" />
        </mxCell>
        <mxCell id="JXL4q3yM0kGkyvvFwsb1-64" value="&lt;div&gt;Autegry_id&lt;/div&gt;" style="shape=partialRectangle;html=1;whiteSpace=wrap;connectable=0;strokeColor=inherit;overflow=hidden;fillColor=none;top=0;left=0;bottom=0;right=0;pointerEvents=1;fontSize=16;" vertex="1" parent="JXL4q3yM0kGkyvvFwsb1-63">
          <mxGeometry width="191" height="38" as="geometry">
            <mxRectangle width="191" height="38" as="alternateBounds" />
          </mxGeometry>
        </mxCell>
        <mxCell id="JXL4q3yM0kGkyvvFwsb1-65" value="CCR_HST_columns" style="shape=partialRectangle;html=1;whiteSpace=wrap;connectable=0;strokeColor=inherit;overflow=hidden;fillColor=none;top=0;left=0;bottom=0;right=0;pointerEvents=1;fontSize=16;" vertex="1" parent="JXL4q3yM0kGkyvvFwsb1-63">
          <mxGeometry x="191" width="189" height="38" as="geometry">
            <mxRectangle width="189" height="38" as="alternateBounds" />
          </mxGeometry>
        </mxCell>
        <mxCell id="JXL4q3yM0kGkyvvFwsb1-66" value="" style="shape=tableRow;horizontal=0;startSize=0;swimlaneHead=0;swimlaneBody=0;strokeColor=inherit;top=0;left=0;bottom=0;right=0;collapsible=0;dropTarget=0;fillColor=none;points=[[0,0.5],[1,0.5]];portConstraint=eastwest;fontSize=16;" vertex="1" parent="JXL4q3yM0kGkyvvFwsb1-62">
          <mxGeometry y="68" width="380" height="42" as="geometry" />
        </mxCell>
        <mxCell id="JXL4q3yM0kGkyvvFwsb1-67" value="" style="shape=partialRectangle;html=1;whiteSpace=wrap;connectable=0;strokeColor=inherit;overflow=hidden;fillColor=none;top=0;left=0;bottom=0;right=0;pointerEvents=1;fontSize=16;" vertex="1" parent="JXL4q3yM0kGkyvvFwsb1-66">
          <mxGeometry width="191" height="42" as="geometry">
            <mxRectangle width="191" height="42" as="alternateBounds" />
          </mxGeometry>
        </mxCell>
        <mxCell id="JXL4q3yM0kGkyvvFwsb1-68" value="" style="shape=partialRectangle;html=1;whiteSpace=wrap;connectable=0;strokeColor=inherit;overflow=hidden;fillColor=none;top=0;left=0;bottom=0;right=0;pointerEvents=1;fontSize=16;" vertex="1" parent="JXL4q3yM0kGkyvvFwsb1-66">
          <mxGeometry x="191" width="189" height="42" as="geometry">
            <mxRectangle width="189" height="42" as="alternateBounds" />
          </mxGeometry>
        </mxCell>
        <mxCell id="JXL4q3yM0kGkyvvFwsb1-69" value="CCR_New" style="shape=table;startSize=30;container=1;collapsible=0;childLayout=tableLayout;strokeColor=#d79b00;fontSize=16;fillColor=#ffe6cc;fillStyle=solid;gradientColor=none;fixedRows=0;backgroundOutline=0;autosize=0;fixedWidth=0;rounded=0;shadow=0;strokeWidth=2;perimeterSpacing=0;labelBackgroundColor=none;whiteSpace=wrap;fontColor=default;" vertex="1" parent="1">
          <mxGeometry x="520" y="360" width="380" height="110" as="geometry" />
        </mxCell>
        <mxCell id="JXL4q3yM0kGkyvvFwsb1-70" value="" style="shape=tableRow;horizontal=0;startSize=0;swimlaneHead=0;swimlaneBody=0;strokeColor=inherit;top=0;left=0;bottom=0;right=0;collapsible=0;dropTarget=0;fillColor=none;points=[[0,0.5],[1,0.5]];portConstraint=eastwest;fontSize=16;" vertex="1" parent="JXL4q3yM0kGkyvvFwsb1-69">
          <mxGeometry y="30" width="380" height="38" as="geometry" />
        </mxCell>
        <mxCell id="JXL4q3yM0kGkyvvFwsb1-71" value="&lt;div&gt;Autegry_id&lt;/div&gt;" style="shape=partialRectangle;html=1;whiteSpace=wrap;connectable=0;strokeColor=inherit;overflow=hidden;fillColor=none;top=0;left=0;bottom=0;right=0;pointerEvents=1;fontSize=16;" vertex="1" parent="JXL4q3yM0kGkyvvFwsb1-70">
          <mxGeometry width="191" height="38" as="geometry">
            <mxRectangle width="191" height="38" as="alternateBounds" />
          </mxGeometry>
        </mxCell>
        <mxCell id="JXL4q3yM0kGkyvvFwsb1-72" value="CCR_New_columns" style="shape=partialRectangle;html=1;whiteSpace=wrap;connectable=0;strokeColor=inherit;overflow=hidden;fillColor=none;top=0;left=0;bottom=0;right=0;pointerEvents=1;fontSize=16;" vertex="1" parent="JXL4q3yM0kGkyvvFwsb1-70">
          <mxGeometry x="191" width="189" height="38" as="geometry">
            <mxRectangle width="189" height="38" as="alternateBounds" />
          </mxGeometry>
        </mxCell>
        <mxCell id="JXL4q3yM0kGkyvvFwsb1-73" value="" style="shape=tableRow;horizontal=0;startSize=0;swimlaneHead=0;swimlaneBody=0;strokeColor=inherit;top=0;left=0;bottom=0;right=0;collapsible=0;dropTarget=0;fillColor=none;points=[[0,0.5],[1,0.5]];portConstraint=eastwest;fontSize=16;" vertex="1" parent="JXL4q3yM0kGkyvvFwsb1-69">
          <mxGeometry y="68" width="380" height="42" as="geometry" />
        </mxCell>
        <mxCell id="JXL4q3yM0kGkyvvFwsb1-74" value="" style="shape=partialRectangle;html=1;whiteSpace=wrap;connectable=0;strokeColor=inherit;overflow=hidden;fillColor=none;top=0;left=0;bottom=0;right=0;pointerEvents=1;fontSize=16;" vertex="1" parent="JXL4q3yM0kGkyvvFwsb1-73">
          <mxGeometry width="191" height="42" as="geometry">
            <mxRectangle width="191" height="42" as="alternateBounds" />
          </mxGeometry>
        </mxCell>
        <mxCell id="JXL4q3yM0kGkyvvFwsb1-75" value="" style="shape=partialRectangle;html=1;whiteSpace=wrap;connectable=0;strokeColor=inherit;overflow=hidden;fillColor=none;top=0;left=0;bottom=0;right=0;pointerEvents=1;fontSize=16;" vertex="1" parent="JXL4q3yM0kGkyvvFwsb1-73">
          <mxGeometry x="191" width="189" height="42" as="geometry">
            <mxRectangle width="189" height="42" as="alternateBounds" />
          </mxGeometry>
        </mxCell>
        <mxCell id="JXL4q3yM0kGkyvvFwsb1-76" value="CCR_Relative" style="shape=table;startSize=30;container=1;collapsible=0;childLayout=tableLayout;strokeColor=#d79b00;fontSize=16;fillColor=#ffe6cc;fillStyle=solid;gradientColor=none;fixedRows=0;backgroundOutline=0;autosize=0;fixedWidth=0;rounded=0;shadow=0;strokeWidth=2;perimeterSpacing=0;labelBackgroundColor=none;whiteSpace=wrap;fontColor=default;" vertex="1" parent="1">
          <mxGeometry x="520" y="520" width="380" height="110" as="geometry" />
        </mxCell>
        <mxCell id="JXL4q3yM0kGkyvvFwsb1-77" value="" style="shape=tableRow;horizontal=0;startSize=0;swimlaneHead=0;swimlaneBody=0;strokeColor=inherit;top=0;left=0;bottom=0;right=0;collapsible=0;dropTarget=0;fillColor=none;points=[[0,0.5],[1,0.5]];portConstraint=eastwest;fontSize=16;" vertex="1" parent="JXL4q3yM0kGkyvvFwsb1-76">
          <mxGeometry y="30" width="380" height="38" as="geometry" />
        </mxCell>
        <mxCell id="JXL4q3yM0kGkyvvFwsb1-78" value="&lt;div&gt;Autegry_id&lt;/div&gt;" style="shape=partialRectangle;html=1;whiteSpace=wrap;connectable=0;strokeColor=inherit;overflow=hidden;fillColor=none;top=0;left=0;bottom=0;right=0;pointerEvents=1;fontSize=16;" vertex="1" parent="JXL4q3yM0kGkyvvFwsb1-77">
          <mxGeometry width="191" height="38" as="geometry">
            <mxRectangle width="191" height="38" as="alternateBounds" />
          </mxGeometry>
        </mxCell>
        <mxCell id="JXL4q3yM0kGkyvvFwsb1-79" value="CCR_Relative_columns " style="shape=partialRectangle;html=1;whiteSpace=wrap;connectable=0;strokeColor=inherit;overflow=hidden;fillColor=none;top=0;left=0;bottom=0;right=0;pointerEvents=1;fontSize=16;" vertex="1" parent="JXL4q3yM0kGkyvvFwsb1-77">
          <mxGeometry x="191" width="189" height="38" as="geometry">
            <mxRectangle width="189" height="38" as="alternateBounds" />
          </mxGeometry>
        </mxCell>
        <mxCell id="JXL4q3yM0kGkyvvFwsb1-80" value="" style="shape=tableRow;horizontal=0;startSize=0;swimlaneHead=0;swimlaneBody=0;strokeColor=inherit;top=0;left=0;bottom=0;right=0;collapsible=0;dropTarget=0;fillColor=none;points=[[0,0.5],[1,0.5]];portConstraint=eastwest;fontSize=16;" vertex="1" parent="JXL4q3yM0kGkyvvFwsb1-76">
          <mxGeometry y="68" width="380" height="42" as="geometry" />
        </mxCell>
        <mxCell id="JXL4q3yM0kGkyvvFwsb1-81" value="" style="shape=partialRectangle;html=1;whiteSpace=wrap;connectable=0;strokeColor=inherit;overflow=hidden;fillColor=none;top=0;left=0;bottom=0;right=0;pointerEvents=1;fontSize=16;" vertex="1" parent="JXL4q3yM0kGkyvvFwsb1-80">
          <mxGeometry width="191" height="42" as="geometry">
            <mxRectangle width="191" height="42" as="alternateBounds" />
          </mxGeometry>
        </mxCell>
        <mxCell id="JXL4q3yM0kGkyvvFwsb1-82" value="" style="shape=partialRectangle;html=1;whiteSpace=wrap;connectable=0;strokeColor=inherit;overflow=hidden;fillColor=none;top=0;left=0;bottom=0;right=0;pointerEvents=1;fontSize=16;" vertex="1" parent="JXL4q3yM0kGkyvvFwsb1-80">
          <mxGeometry x="191" width="189" height="42" as="geometry">
            <mxRectangle width="189" height="42" as="alternateBounds" />
          </mxGeometry>
        </mxCell>
        <mxCell id="JXL4q3yM0kGkyvvFwsb1-90" value="CCR_Relative" style="shape=table;startSize=30;container=1;collapsible=0;childLayout=tableLayout;strokeColor=#d79b00;fontSize=16;fillColor=#ffe6cc;fillStyle=solid;gradientColor=none;fixedRows=0;backgroundOutline=0;autosize=0;fixedWidth=0;rounded=0;shadow=0;strokeWidth=2;perimeterSpacing=0;labelBackgroundColor=none;whiteSpace=wrap;fontColor=default;" vertex="1" parent="1">
          <mxGeometry x="520" y="680" width="380" height="110" as="geometry" />
        </mxCell>
        <mxCell id="JXL4q3yM0kGkyvvFwsb1-91" value="" style="shape=tableRow;horizontal=0;startSize=0;swimlaneHead=0;swimlaneBody=0;strokeColor=inherit;top=0;left=0;bottom=0;right=0;collapsible=0;dropTarget=0;fillColor=none;points=[[0,0.5],[1,0.5]];portConstraint=eastwest;fontSize=16;" vertex="1" parent="JXL4q3yM0kGkyvvFwsb1-90">
          <mxGeometry y="30" width="380" height="38" as="geometry" />
        </mxCell>
        <mxCell id="JXL4q3yM0kGkyvvFwsb1-92" value="&lt;div&gt;Autegry_id&lt;/div&gt;" style="shape=partialRectangle;html=1;whiteSpace=wrap;connectable=0;strokeColor=inherit;overflow=hidden;fillColor=none;top=0;left=0;bottom=0;right=0;pointerEvents=1;fontSize=16;" vertex="1" parent="JXL4q3yM0kGkyvvFwsb1-91">
          <mxGeometry width="191" height="38" as="geometry">
            <mxRectangle width="191" height="38" as="alternateBounds" />
          </mxGeometry>
        </mxCell>
        <mxCell id="JXL4q3yM0kGkyvvFwsb1-93" value="CCR_Relative_columns " style="shape=partialRectangle;html=1;whiteSpace=wrap;connectable=0;strokeColor=inherit;overflow=hidden;fillColor=none;top=0;left=0;bottom=0;right=0;pointerEvents=1;fontSize=16;" vertex="1" parent="JXL4q3yM0kGkyvvFwsb1-91">
          <mxGeometry x="191" width="189" height="38" as="geometry">
            <mxRectangle width="189" height="38" as="alternateBounds" />
          </mxGeometry>
        </mxCell>
        <mxCell id="JXL4q3yM0kGkyvvFwsb1-94" value="" style="shape=tableRow;horizontal=0;startSize=0;swimlaneHead=0;swimlaneBody=0;strokeColor=inherit;top=0;left=0;bottom=0;right=0;collapsible=0;dropTarget=0;fillColor=none;points=[[0,0.5],[1,0.5]];portConstraint=eastwest;fontSize=16;" vertex="1" parent="JXL4q3yM0kGkyvvFwsb1-90">
          <mxGeometry y="68" width="380" height="42" as="geometry" />
        </mxCell>
        <mxCell id="JXL4q3yM0kGkyvvFwsb1-95" value="" style="shape=partialRectangle;html=1;whiteSpace=wrap;connectable=0;strokeColor=inherit;overflow=hidden;fillColor=none;top=0;left=0;bottom=0;right=0;pointerEvents=1;fontSize=16;" vertex="1" parent="JXL4q3yM0kGkyvvFwsb1-94">
          <mxGeometry width="191" height="42" as="geometry">
            <mxRectangle width="191" height="42" as="alternateBounds" />
          </mxGeometry>
        </mxCell>
        <mxCell id="JXL4q3yM0kGkyvvFwsb1-96" value="" style="shape=partialRectangle;html=1;whiteSpace=wrap;connectable=0;strokeColor=inherit;overflow=hidden;fillColor=none;top=0;left=0;bottom=0;right=0;pointerEvents=1;fontSize=16;" vertex="1" parent="JXL4q3yM0kGkyvvFwsb1-94">
          <mxGeometry x="191" width="189" height="42" as="geometry">
            <mxRectangle width="189" height="42" as="alternateBounds" />
          </mxGeometry>
        </mxCell>
        <mxCell id="JXL4q3yM0kGkyvvFwsb1-97" value="SNNSI_Egn" style="shape=table;startSize=30;container=1;collapsible=0;childLayout=tableLayout;strokeColor=#d79b00;fontSize=16;fillColor=#ffe6cc;fillStyle=solid;gradientColor=none;fixedRows=0;backgroundOutline=0;autosize=0;fixedWidth=0;rounded=0;shadow=0;strokeWidth=2;perimeterSpacing=0;labelBackgroundColor=none;whiteSpace=wrap;fontColor=default;" vertex="1" parent="1">
          <mxGeometry x="520" y="840" width="380" height="110" as="geometry" />
        </mxCell>
        <mxCell id="JXL4q3yM0kGkyvvFwsb1-98" value="" style="shape=tableRow;horizontal=0;startSize=0;swimlaneHead=0;swimlaneBody=0;strokeColor=inherit;top=0;left=0;bottom=0;right=0;collapsible=0;dropTarget=0;fillColor=none;points=[[0,0.5],[1,0.5]];portConstraint=eastwest;fontSize=16;" vertex="1" parent="JXL4q3yM0kGkyvvFwsb1-97">
          <mxGeometry y="30" width="380" height="38" as="geometry" />
        </mxCell>
        <mxCell id="JXL4q3yM0kGkyvvFwsb1-99" value="&lt;div&gt;Autegry_id&lt;/div&gt;" style="shape=partialRectangle;html=1;whiteSpace=wrap;connectable=0;strokeColor=inherit;overflow=hidden;fillColor=none;top=0;left=0;bottom=0;right=0;pointerEvents=1;fontSize=16;" vertex="1" parent="JXL4q3yM0kGkyvvFwsb1-98">
          <mxGeometry width="191" height="38" as="geometry">
            <mxRectangle width="191" height="38" as="alternateBounds" />
          </mxGeometry>
        </mxCell>
        <mxCell id="JXL4q3yM0kGkyvvFwsb1-100" value="SNNSI_Egn_columns" style="shape=partialRectangle;html=1;whiteSpace=wrap;connectable=0;strokeColor=inherit;overflow=hidden;fillColor=none;top=0;left=0;bottom=0;right=0;pointerEvents=1;fontSize=16;" vertex="1" parent="JXL4q3yM0kGkyvvFwsb1-98">
          <mxGeometry x="191" width="189" height="38" as="geometry">
            <mxRectangle width="189" height="38" as="alternateBounds" />
          </mxGeometry>
        </mxCell>
        <mxCell id="JXL4q3yM0kGkyvvFwsb1-101" value="" style="shape=tableRow;horizontal=0;startSize=0;swimlaneHead=0;swimlaneBody=0;strokeColor=inherit;top=0;left=0;bottom=0;right=0;collapsible=0;dropTarget=0;fillColor=none;points=[[0,0.5],[1,0.5]];portConstraint=eastwest;fontSize=16;" vertex="1" parent="JXL4q3yM0kGkyvvFwsb1-97">
          <mxGeometry y="68" width="380" height="42" as="geometry" />
        </mxCell>
        <mxCell id="JXL4q3yM0kGkyvvFwsb1-102" value="" style="shape=partialRectangle;html=1;whiteSpace=wrap;connectable=0;strokeColor=inherit;overflow=hidden;fillColor=none;top=0;left=0;bottom=0;right=0;pointerEvents=1;fontSize=16;" vertex="1" parent="JXL4q3yM0kGkyvvFwsb1-101">
          <mxGeometry width="191" height="42" as="geometry">
            <mxRectangle width="191" height="42" as="alternateBounds" />
          </mxGeometry>
        </mxCell>
        <mxCell id="JXL4q3yM0kGkyvvFwsb1-103" value="" style="shape=partialRectangle;html=1;whiteSpace=wrap;connectable=0;strokeColor=inherit;overflow=hidden;fillColor=none;top=0;left=0;bottom=0;right=0;pointerEvents=1;fontSize=16;" vertex="1" parent="JXL4q3yM0kGkyvvFwsb1-101">
          <mxGeometry x="191" width="189" height="42" as="geometry">
            <mxRectangle width="189" height="42" as="alternateBounds" />
          </mxGeometry>
        </mxCell>
        <mxCell id="JXL4q3yM0kGkyvvFwsb1-104" value="SNNSI_Bulstat" style="shape=table;startSize=30;container=1;collapsible=0;childLayout=tableLayout;strokeColor=#d79b00;fontSize=16;fillColor=#ffe6cc;fillStyle=solid;gradientColor=none;fixedRows=0;backgroundOutline=0;autosize=0;fixedWidth=0;rounded=0;shadow=0;strokeWidth=2;perimeterSpacing=0;labelBackgroundColor=none;whiteSpace=wrap;fontColor=default;" vertex="1" parent="1">
          <mxGeometry x="60" y="840" width="380" height="110" as="geometry" />
        </mxCell>
        <mxCell id="JXL4q3yM0kGkyvvFwsb1-105" value="" style="shape=tableRow;horizontal=0;startSize=0;swimlaneHead=0;swimlaneBody=0;strokeColor=inherit;top=0;left=0;bottom=0;right=0;collapsible=0;dropTarget=0;fillColor=none;points=[[0,0.5],[1,0.5]];portConstraint=eastwest;fontSize=16;" vertex="1" parent="JXL4q3yM0kGkyvvFwsb1-104">
          <mxGeometry y="30" width="380" height="38" as="geometry" />
        </mxCell>
        <mxCell id="JXL4q3yM0kGkyvvFwsb1-106" value="&lt;div&gt;Autegry_id&lt;/div&gt;" style="shape=partialRectangle;html=1;whiteSpace=wrap;connectable=0;strokeColor=inherit;overflow=hidden;fillColor=none;top=0;left=0;bottom=0;right=0;pointerEvents=1;fontSize=16;" vertex="1" parent="JXL4q3yM0kGkyvvFwsb1-105">
          <mxGeometry width="191" height="38" as="geometry">
            <mxRectangle width="191" height="38" as="alternateBounds" />
          </mxGeometry>
        </mxCell>
        <mxCell id="JXL4q3yM0kGkyvvFwsb1-107" value="SNNSI_Bulstat_columns" style="shape=partialRectangle;html=1;whiteSpace=wrap;connectable=0;strokeColor=inherit;overflow=hidden;fillColor=none;top=0;left=0;bottom=0;right=0;pointerEvents=1;fontSize=16;" vertex="1" parent="JXL4q3yM0kGkyvvFwsb1-105">
          <mxGeometry x="191" width="189" height="38" as="geometry">
            <mxRectangle width="189" height="38" as="alternateBounds" />
          </mxGeometry>
        </mxCell>
        <mxCell id="JXL4q3yM0kGkyvvFwsb1-108" value="" style="shape=tableRow;horizontal=0;startSize=0;swimlaneHead=0;swimlaneBody=0;strokeColor=inherit;top=0;left=0;bottom=0;right=0;collapsible=0;dropTarget=0;fillColor=none;points=[[0,0.5],[1,0.5]];portConstraint=eastwest;fontSize=16;" vertex="1" parent="JXL4q3yM0kGkyvvFwsb1-104">
          <mxGeometry y="68" width="380" height="42" as="geometry" />
        </mxCell>
        <mxCell id="JXL4q3yM0kGkyvvFwsb1-109" value="" style="shape=partialRectangle;html=1;whiteSpace=wrap;connectable=0;strokeColor=inherit;overflow=hidden;fillColor=none;top=0;left=0;bottom=0;right=0;pointerEvents=1;fontSize=16;" vertex="1" parent="JXL4q3yM0kGkyvvFwsb1-108">
          <mxGeometry width="191" height="42" as="geometry">
            <mxRectangle width="191" height="42" as="alternateBounds" />
          </mxGeometry>
        </mxCell>
        <mxCell id="JXL4q3yM0kGkyvvFwsb1-110" value="" style="shape=partialRectangle;html=1;whiteSpace=wrap;connectable=0;strokeColor=inherit;overflow=hidden;fillColor=none;top=0;left=0;bottom=0;right=0;pointerEvents=1;fontSize=16;" vertex="1" parent="JXL4q3yM0kGkyvvFwsb1-108">
          <mxGeometry x="191" width="189" height="42" as="geometry">
            <mxRectangle width="189" height="42" as="alternateBounds" />
          </mxGeometry>
        </mxCell>
        <mxCell id="JXL4q3yM0kGkyvvFwsb1-111" value="SNNSI_Personal" style="shape=table;startSize=30;container=1;collapsible=0;childLayout=tableLayout;strokeColor=#d79b00;fontSize=16;fillColor=#ffe6cc;fillStyle=solid;gradientColor=none;fixedRows=0;backgroundOutline=0;autosize=0;fixedWidth=0;rounded=0;shadow=0;strokeWidth=2;perimeterSpacing=0;labelBackgroundColor=none;whiteSpace=wrap;fontColor=default;" vertex="1" parent="1">
          <mxGeometry x="-380" y="840" width="380" height="110" as="geometry" />
        </mxCell>
        <mxCell id="JXL4q3yM0kGkyvvFwsb1-112" value="" style="shape=tableRow;horizontal=0;startSize=0;swimlaneHead=0;swimlaneBody=0;strokeColor=inherit;top=0;left=0;bottom=0;right=0;collapsible=0;dropTarget=0;fillColor=none;points=[[0,0.5],[1,0.5]];portConstraint=eastwest;fontSize=16;" vertex="1" parent="JXL4q3yM0kGkyvvFwsb1-111">
          <mxGeometry y="30" width="380" height="38" as="geometry" />
        </mxCell>
        <mxCell id="JXL4q3yM0kGkyvvFwsb1-113" value="&lt;div&gt;Autegry_id&lt;/div&gt;" style="shape=partialRectangle;html=1;whiteSpace=wrap;connectable=0;strokeColor=inherit;overflow=hidden;fillColor=none;top=0;left=0;bottom=0;right=0;pointerEvents=1;fontSize=16;" vertex="1" parent="JXL4q3yM0kGkyvvFwsb1-112">
          <mxGeometry width="191" height="38" as="geometry">
            <mxRectangle width="191" height="38" as="alternateBounds" />
          </mxGeometry>
        </mxCell>
        <mxCell id="JXL4q3yM0kGkyvvFwsb1-114" value="SNNSI_Personal_columns" style="shape=partialRectangle;html=1;whiteSpace=wrap;connectable=0;strokeColor=inherit;overflow=hidden;fillColor=none;top=0;left=0;bottom=0;right=0;pointerEvents=1;fontSize=16;" vertex="1" parent="JXL4q3yM0kGkyvvFwsb1-112">
          <mxGeometry x="191" width="189" height="38" as="geometry">
            <mxRectangle width="189" height="38" as="alternateBounds" />
          </mxGeometry>
        </mxCell>
        <mxCell id="JXL4q3yM0kGkyvvFwsb1-115" value="" style="shape=tableRow;horizontal=0;startSize=0;swimlaneHead=0;swimlaneBody=0;strokeColor=inherit;top=0;left=0;bottom=0;right=0;collapsible=0;dropTarget=0;fillColor=none;points=[[0,0.5],[1,0.5]];portConstraint=eastwest;fontSize=16;" vertex="1" parent="JXL4q3yM0kGkyvvFwsb1-111">
          <mxGeometry y="68" width="380" height="42" as="geometry" />
        </mxCell>
        <mxCell id="JXL4q3yM0kGkyvvFwsb1-116" value="" style="shape=partialRectangle;html=1;whiteSpace=wrap;connectable=0;strokeColor=inherit;overflow=hidden;fillColor=none;top=0;left=0;bottom=0;right=0;pointerEvents=1;fontSize=16;" vertex="1" parent="JXL4q3yM0kGkyvvFwsb1-115">
          <mxGeometry width="191" height="42" as="geometry">
            <mxRectangle width="191" height="42" as="alternateBounds" />
          </mxGeometry>
        </mxCell>
        <mxCell id="JXL4q3yM0kGkyvvFwsb1-117" value="" style="shape=partialRectangle;html=1;whiteSpace=wrap;connectable=0;strokeColor=inherit;overflow=hidden;fillColor=none;top=0;left=0;bottom=0;right=0;pointerEvents=1;fontSize=16;" vertex="1" parent="JXL4q3yM0kGkyvvFwsb1-115">
          <mxGeometry x="191" width="189" height="42" as="geometry">
            <mxRectangle width="189" height="42" as="alternateBounds" />
          </mxGeometry>
        </mxCell>
        <mxCell id="JXL4q3yM0kGkyvvFwsb1-118" value="LNNSI" style="shape=table;startSize=30;container=1;collapsible=0;childLayout=tableLayout;strokeColor=#d79b00;fontSize=16;fillColor=#ffe6cc;fillStyle=solid;gradientColor=none;fixedRows=0;backgroundOutline=0;autosize=0;fixedWidth=0;rounded=0;shadow=0;strokeWidth=2;perimeterSpacing=0;labelBackgroundColor=none;whiteSpace=wrap;fontColor=default;" vertex="1" parent="1">
          <mxGeometry x="-820" y="840" width="380" height="110" as="geometry" />
        </mxCell>
        <mxCell id="JXL4q3yM0kGkyvvFwsb1-119" value="" style="shape=tableRow;horizontal=0;startSize=0;swimlaneHead=0;swimlaneBody=0;strokeColor=inherit;top=0;left=0;bottom=0;right=0;collapsible=0;dropTarget=0;fillColor=none;points=[[0,0.5],[1,0.5]];portConstraint=eastwest;fontSize=16;" vertex="1" parent="JXL4q3yM0kGkyvvFwsb1-118">
          <mxGeometry y="30" width="380" height="38" as="geometry" />
        </mxCell>
        <mxCell id="JXL4q3yM0kGkyvvFwsb1-120" value="&lt;div&gt;Autegry_id&lt;/div&gt;" style="shape=partialRectangle;html=1;whiteSpace=wrap;connectable=0;strokeColor=inherit;overflow=hidden;fillColor=none;top=0;left=0;bottom=0;right=0;pointerEvents=1;fontSize=16;" vertex="1" parent="JXL4q3yM0kGkyvvFwsb1-119">
          <mxGeometry width="191" height="38" as="geometry">
            <mxRectangle width="191" height="38" as="alternateBounds" />
          </mxGeometry>
        </mxCell>
        <mxCell id="JXL4q3yM0kGkyvvFwsb1-121" value="LNNSI_columns" style="shape=partialRectangle;html=1;whiteSpace=wrap;connectable=0;strokeColor=inherit;overflow=hidden;fillColor=none;top=0;left=0;bottom=0;right=0;pointerEvents=1;fontSize=16;" vertex="1" parent="JXL4q3yM0kGkyvvFwsb1-119">
          <mxGeometry x="191" width="189" height="38" as="geometry">
            <mxRectangle width="189" height="38" as="alternateBounds" />
          </mxGeometry>
        </mxCell>
        <mxCell id="JXL4q3yM0kGkyvvFwsb1-122" value="" style="shape=tableRow;horizontal=0;startSize=0;swimlaneHead=0;swimlaneBody=0;strokeColor=inherit;top=0;left=0;bottom=0;right=0;collapsible=0;dropTarget=0;fillColor=none;points=[[0,0.5],[1,0.5]];portConstraint=eastwest;fontSize=16;" vertex="1" parent="JXL4q3yM0kGkyvvFwsb1-118">
          <mxGeometry y="68" width="380" height="42" as="geometry" />
        </mxCell>
        <mxCell id="JXL4q3yM0kGkyvvFwsb1-123" value="" style="shape=partialRectangle;html=1;whiteSpace=wrap;connectable=0;strokeColor=inherit;overflow=hidden;fillColor=none;top=0;left=0;bottom=0;right=0;pointerEvents=1;fontSize=16;" vertex="1" parent="JXL4q3yM0kGkyvvFwsb1-122">
          <mxGeometry width="191" height="42" as="geometry">
            <mxRectangle width="191" height="42" as="alternateBounds" />
          </mxGeometry>
        </mxCell>
        <mxCell id="JXL4q3yM0kGkyvvFwsb1-124" value="" style="shape=partialRectangle;html=1;whiteSpace=wrap;connectable=0;strokeColor=inherit;overflow=hidden;fillColor=none;top=0;left=0;bottom=0;right=0;pointerEvents=1;fontSize=16;" vertex="1" parent="JXL4q3yM0kGkyvvFwsb1-122">
          <mxGeometry x="191" width="189" height="42" as="geometry">
            <mxRectangle width="189" height="42" as="alternateBounds" />
          </mxGeometry>
        </mxCell>
        <mxCell id="JXL4q3yM0kGkyvvFwsb1-125" value="PNNSI" style="shape=table;startSize=30;container=1;collapsible=0;childLayout=tableLayout;strokeColor=#d79b00;fontSize=16;fillColor=#ffe6cc;fillStyle=solid;gradientColor=none;fixedRows=0;backgroundOutline=0;autosize=0;fixedWidth=0;rounded=0;shadow=0;strokeWidth=2;perimeterSpacing=0;labelBackgroundColor=none;whiteSpace=wrap;fontColor=default;" vertex="1" parent="1">
          <mxGeometry x="-820" y="200" width="380" height="110" as="geometry" />
        </mxCell>
        <mxCell id="JXL4q3yM0kGkyvvFwsb1-126" value="" style="shape=tableRow;horizontal=0;startSize=0;swimlaneHead=0;swimlaneBody=0;strokeColor=inherit;top=0;left=0;bottom=0;right=0;collapsible=0;dropTarget=0;fillColor=none;points=[[0,0.5],[1,0.5]];portConstraint=eastwest;fontSize=16;" vertex="1" parent="JXL4q3yM0kGkyvvFwsb1-125">
          <mxGeometry y="30" width="380" height="38" as="geometry" />
        </mxCell>
        <mxCell id="JXL4q3yM0kGkyvvFwsb1-127" value="&lt;div&gt;Autegry_id&lt;/div&gt;" style="shape=partialRectangle;html=1;whiteSpace=wrap;connectable=0;strokeColor=inherit;overflow=hidden;fillColor=none;top=0;left=0;bottom=0;right=0;pointerEvents=1;fontSize=16;" vertex="1" parent="JXL4q3yM0kGkyvvFwsb1-126">
          <mxGeometry width="191" height="38" as="geometry">
            <mxRectangle width="191" height="38" as="alternateBounds" />
          </mxGeometry>
        </mxCell>
        <mxCell id="JXL4q3yM0kGkyvvFwsb1-128" value="PNNSI_columns" style="shape=partialRectangle;html=1;whiteSpace=wrap;connectable=0;strokeColor=inherit;overflow=hidden;fillColor=none;top=0;left=0;bottom=0;right=0;pointerEvents=1;fontSize=16;" vertex="1" parent="JXL4q3yM0kGkyvvFwsb1-126">
          <mxGeometry x="191" width="189" height="38" as="geometry">
            <mxRectangle width="189" height="38" as="alternateBounds" />
          </mxGeometry>
        </mxCell>
        <mxCell id="JXL4q3yM0kGkyvvFwsb1-129" value="" style="shape=tableRow;horizontal=0;startSize=0;swimlaneHead=0;swimlaneBody=0;strokeColor=inherit;top=0;left=0;bottom=0;right=0;collapsible=0;dropTarget=0;fillColor=none;points=[[0,0.5],[1,0.5]];portConstraint=eastwest;fontSize=16;" vertex="1" parent="JXL4q3yM0kGkyvvFwsb1-125">
          <mxGeometry y="68" width="380" height="42" as="geometry" />
        </mxCell>
        <mxCell id="JXL4q3yM0kGkyvvFwsb1-130" value="" style="shape=partialRectangle;html=1;whiteSpace=wrap;connectable=0;strokeColor=inherit;overflow=hidden;fillColor=none;top=0;left=0;bottom=0;right=0;pointerEvents=1;fontSize=16;" vertex="1" parent="JXL4q3yM0kGkyvvFwsb1-129">
          <mxGeometry width="191" height="42" as="geometry">
            <mxRectangle width="191" height="42" as="alternateBounds" />
          </mxGeometry>
        </mxCell>
        <mxCell id="JXL4q3yM0kGkyvvFwsb1-131" value="" style="shape=partialRectangle;html=1;whiteSpace=wrap;connectable=0;strokeColor=inherit;overflow=hidden;fillColor=none;top=0;left=0;bottom=0;right=0;pointerEvents=1;fontSize=16;" vertex="1" parent="JXL4q3yM0kGkyvvFwsb1-129">
          <mxGeometry x="191" width="189" height="42" as="geometry">
            <mxRectangle width="189" height="42" as="alternateBounds" />
          </mxGeometry>
        </mxCell>
        <mxCell id="JXL4q3yM0kGkyvvFwsb1-133" value="Performance_static" style="shape=table;startSize=30;container=1;collapsible=0;childLayout=tableLayout;strokeColor=#d79b00;fontSize=16;fillColor=#ffe6cc;fillStyle=solid;gradientColor=none;fixedRows=0;backgroundOutline=0;autosize=0;fixedWidth=0;rounded=0;shadow=0;strokeWidth=2;perimeterSpacing=0;labelBackgroundColor=none;whiteSpace=wrap;fontColor=default;" vertex="1" parent="1">
          <mxGeometry x="-440" y="-140" width="311" height="110" as="geometry" />
        </mxCell>
        <mxCell id="JXL4q3yM0kGkyvvFwsb1-134" value="" style="shape=tableRow;horizontal=0;startSize=0;swimlaneHead=0;swimlaneBody=0;strokeColor=inherit;top=0;left=0;bottom=0;right=0;collapsible=0;dropTarget=0;fillColor=none;points=[[0,0.5],[1,0.5]];portConstraint=eastwest;fontSize=16;" vertex="1" parent="JXL4q3yM0kGkyvvFwsb1-133">
          <mxGeometry y="30" width="311" height="38" as="geometry" />
        </mxCell>
        <mxCell id="JXL4q3yM0kGkyvvFwsb1-135" value="&lt;div&gt;Autegry_id&lt;/div&gt;" style="shape=partialRectangle;html=1;whiteSpace=wrap;connectable=0;strokeColor=inherit;overflow=hidden;fillColor=none;top=0;left=0;bottom=0;right=0;pointerEvents=1;fontSize=16;" vertex="1" parent="JXL4q3yM0kGkyvvFwsb1-134">
          <mxGeometry width="156" height="38" as="geometry">
            <mxRectangle width="156" height="38" as="alternateBounds" />
          </mxGeometry>
        </mxCell>
        <mxCell id="JXL4q3yM0kGkyvvFwsb1-136" value="Static info" style="shape=partialRectangle;html=1;whiteSpace=wrap;connectable=0;strokeColor=inherit;overflow=hidden;fillColor=none;top=0;left=0;bottom=0;right=0;pointerEvents=1;fontSize=16;" vertex="1" parent="JXL4q3yM0kGkyvvFwsb1-134">
          <mxGeometry x="156" width="155" height="38" as="geometry">
            <mxRectangle width="155" height="38" as="alternateBounds" />
          </mxGeometry>
        </mxCell>
        <mxCell id="JXL4q3yM0kGkyvvFwsb1-140" value="" style="shape=tableRow;horizontal=0;startSize=0;swimlaneHead=0;swimlaneBody=0;strokeColor=inherit;top=0;left=0;bottom=0;right=0;collapsible=0;dropTarget=0;fillColor=none;points=[[0,0.5],[1,0.5]];portConstraint=eastwest;fontSize=16;" vertex="1" parent="JXL4q3yM0kGkyvvFwsb1-133">
          <mxGeometry y="68" width="311" height="42" as="geometry" />
        </mxCell>
        <mxCell id="JXL4q3yM0kGkyvvFwsb1-141" value="" style="shape=partialRectangle;html=1;whiteSpace=wrap;connectable=0;strokeColor=inherit;overflow=hidden;fillColor=none;top=0;left=0;bottom=0;right=0;pointerEvents=1;fontSize=16;" vertex="1" parent="JXL4q3yM0kGkyvvFwsb1-140">
          <mxGeometry width="156" height="42" as="geometry">
            <mxRectangle width="156" height="42" as="alternateBounds" />
          </mxGeometry>
        </mxCell>
        <mxCell id="JXL4q3yM0kGkyvvFwsb1-142" value="" style="shape=partialRectangle;html=1;whiteSpace=wrap;connectable=0;strokeColor=inherit;overflow=hidden;fillColor=none;top=0;left=0;bottom=0;right=0;pointerEvents=1;fontSize=16;" vertex="1" parent="JXL4q3yM0kGkyvvFwsb1-140">
          <mxGeometry x="156" width="155" height="42" as="geometry">
            <mxRectangle width="155" height="42" as="alternateBounds" />
          </mxGeometry>
        </mxCell>
        <mxCell id="JXL4q3yM0kGkyvvFwsb1-146" value="Payment" style="shape=table;startSize=30;container=1;collapsible=0;childLayout=tableLayout;strokeColor=#d79b00;fontSize=16;fillColor=#ffe6cc;fillStyle=solid;gradientColor=none;fixedRows=0;backgroundOutline=0;autosize=0;fixedWidth=0;rounded=0;shadow=0;strokeWidth=2;perimeterSpacing=0;labelBackgroundColor=none;whiteSpace=wrap;fontColor=default;" vertex="1" parent="1">
          <mxGeometry x="-440" y="-290" width="932" height="110" as="geometry" />
        </mxCell>
        <mxCell id="JXL4q3yM0kGkyvvFwsb1-147" value="" style="shape=tableRow;horizontal=0;startSize=0;swimlaneHead=0;swimlaneBody=0;strokeColor=inherit;top=0;left=0;bottom=0;right=0;collapsible=0;dropTarget=0;fillColor=none;points=[[0,0.5],[1,0.5]];portConstraint=eastwest;fontSize=16;" vertex="1" parent="JXL4q3yM0kGkyvvFwsb1-146">
          <mxGeometry y="30" width="932" height="38" as="geometry" />
        </mxCell>
        <mxCell id="JXL4q3yM0kGkyvvFwsb1-167" value="Autegry_id" style="shape=partialRectangle;html=1;whiteSpace=wrap;connectable=0;strokeColor=inherit;overflow=hidden;fillColor=none;top=0;left=0;bottom=0;right=0;pointerEvents=1;fontSize=16;" vertex="1" parent="JXL4q3yM0kGkyvvFwsb1-147">
          <mxGeometry width="156" height="38" as="geometry">
            <mxRectangle width="156" height="38" as="alternateBounds" />
          </mxGeometry>
        </mxCell>
        <mxCell id="JXL4q3yM0kGkyvvFwsb1-148" value="date" style="shape=partialRectangle;html=1;whiteSpace=wrap;connectable=0;strokeColor=inherit;overflow=hidden;fillColor=none;top=0;left=0;bottom=0;right=0;pointerEvents=1;fontSize=16;" vertex="1" parent="JXL4q3yM0kGkyvvFwsb1-147">
          <mxGeometry x="156" width="156" height="38" as="geometry">
            <mxRectangle width="156" height="38" as="alternateBounds" />
          </mxGeometry>
        </mxCell>
        <mxCell id="JXL4q3yM0kGkyvvFwsb1-149" value="payment" style="shape=partialRectangle;html=1;whiteSpace=wrap;connectable=0;strokeColor=inherit;overflow=hidden;fillColor=none;top=0;left=0;bottom=0;right=0;pointerEvents=1;fontSize=16;" vertex="1" parent="JXL4q3yM0kGkyvvFwsb1-147">
          <mxGeometry x="312" width="155" height="38" as="geometry">
            <mxRectangle width="155" height="38" as="alternateBounds" />
          </mxGeometry>
        </mxCell>
        <mxCell id="JXL4q3yM0kGkyvvFwsb1-153" value="principal" style="shape=partialRectangle;html=1;whiteSpace=wrap;connectable=0;strokeColor=inherit;overflow=hidden;fillColor=none;top=0;left=0;bottom=0;right=0;pointerEvents=1;fontSize=16;" vertex="1" parent="JXL4q3yM0kGkyvvFwsb1-147">
          <mxGeometry x="467" width="155" height="38" as="geometry">
            <mxRectangle width="155" height="38" as="alternateBounds" />
          </mxGeometry>
        </mxCell>
        <mxCell id="JXL4q3yM0kGkyvvFwsb1-155" value="interest" style="shape=partialRectangle;html=1;whiteSpace=wrap;connectable=0;strokeColor=inherit;overflow=hidden;fillColor=none;top=0;left=0;bottom=0;right=0;pointerEvents=1;fontSize=16;" vertex="1" parent="JXL4q3yM0kGkyvvFwsb1-147">
          <mxGeometry x="622" width="155" height="38" as="geometry">
            <mxRectangle width="155" height="38" as="alternateBounds" />
          </mxGeometry>
        </mxCell>
        <mxCell id="JXL4q3yM0kGkyvvFwsb1-157" value="taxes" style="shape=partialRectangle;html=1;whiteSpace=wrap;connectable=0;strokeColor=inherit;overflow=hidden;fillColor=none;top=0;left=0;bottom=0;right=0;pointerEvents=1;fontSize=16;" vertex="1" parent="JXL4q3yM0kGkyvvFwsb1-147">
          <mxGeometry x="777" width="155" height="38" as="geometry">
            <mxRectangle width="155" height="38" as="alternateBounds" />
          </mxGeometry>
        </mxCell>
        <mxCell id="JXL4q3yM0kGkyvvFwsb1-150" value="" style="shape=tableRow;horizontal=0;startSize=0;swimlaneHead=0;swimlaneBody=0;strokeColor=inherit;top=0;left=0;bottom=0;right=0;collapsible=0;dropTarget=0;fillColor=none;points=[[0,0.5],[1,0.5]];portConstraint=eastwest;fontSize=16;" vertex="1" parent="JXL4q3yM0kGkyvvFwsb1-146">
          <mxGeometry y="68" width="932" height="42" as="geometry" />
        </mxCell>
        <mxCell id="JXL4q3yM0kGkyvvFwsb1-168" style="shape=partialRectangle;html=1;whiteSpace=wrap;connectable=0;strokeColor=inherit;overflow=hidden;fillColor=none;top=0;left=0;bottom=0;right=0;pointerEvents=1;fontSize=16;" vertex="1" parent="JXL4q3yM0kGkyvvFwsb1-150">
          <mxGeometry width="156" height="42" as="geometry">
            <mxRectangle width="156" height="42" as="alternateBounds" />
          </mxGeometry>
        </mxCell>
        <mxCell id="JXL4q3yM0kGkyvvFwsb1-151" value="" style="shape=partialRectangle;html=1;whiteSpace=wrap;connectable=0;strokeColor=inherit;overflow=hidden;fillColor=none;top=0;left=0;bottom=0;right=0;pointerEvents=1;fontSize=16;" vertex="1" parent="JXL4q3yM0kGkyvvFwsb1-150">
          <mxGeometry x="156" width="156" height="42" as="geometry">
            <mxRectangle width="156" height="42" as="alternateBounds" />
          </mxGeometry>
        </mxCell>
        <mxCell id="JXL4q3yM0kGkyvvFwsb1-152" value="" style="shape=partialRectangle;html=1;whiteSpace=wrap;connectable=0;strokeColor=inherit;overflow=hidden;fillColor=none;top=0;left=0;bottom=0;right=0;pointerEvents=1;fontSize=16;" vertex="1" parent="JXL4q3yM0kGkyvvFwsb1-150">
          <mxGeometry x="312" width="155" height="42" as="geometry">
            <mxRectangle width="155" height="42" as="alternateBounds" />
          </mxGeometry>
        </mxCell>
        <mxCell id="JXL4q3yM0kGkyvvFwsb1-154" style="shape=partialRectangle;html=1;whiteSpace=wrap;connectable=0;strokeColor=inherit;overflow=hidden;fillColor=none;top=0;left=0;bottom=0;right=0;pointerEvents=1;fontSize=16;" vertex="1" parent="JXL4q3yM0kGkyvvFwsb1-150">
          <mxGeometry x="467" width="155" height="42" as="geometry">
            <mxRectangle width="155" height="42" as="alternateBounds" />
          </mxGeometry>
        </mxCell>
        <mxCell id="JXL4q3yM0kGkyvvFwsb1-156" style="shape=partialRectangle;html=1;whiteSpace=wrap;connectable=0;strokeColor=inherit;overflow=hidden;fillColor=none;top=0;left=0;bottom=0;right=0;pointerEvents=1;fontSize=16;" vertex="1" parent="JXL4q3yM0kGkyvvFwsb1-150">
          <mxGeometry x="622" width="155" height="42" as="geometry">
            <mxRectangle width="155" height="42" as="alternateBounds" />
          </mxGeometry>
        </mxCell>
        <mxCell id="JXL4q3yM0kGkyvvFwsb1-158" style="shape=partialRectangle;html=1;whiteSpace=wrap;connectable=0;strokeColor=inherit;overflow=hidden;fillColor=none;top=0;left=0;bottom=0;right=0;pointerEvents=1;fontSize=16;" vertex="1" parent="JXL4q3yM0kGkyvvFwsb1-150">
          <mxGeometry x="777" width="155" height="42" as="geometry">
            <mxRectangle width="155" height="42" as="alternateBounds" />
          </mxGeometry>
        </mxCell>
        <mxCell id="JXL4q3yM0kGkyvvFwsb1-170" value="Payment_plan" style="shape=table;startSize=30;container=1;collapsible=0;childLayout=tableLayout;strokeColor=#d79b00;fontSize=16;fillColor=#ffe6cc;fillStyle=solid;gradientColor=none;fixedRows=0;backgroundOutline=0;autosize=0;fixedWidth=0;rounded=0;shadow=0;strokeWidth=2;perimeterSpacing=0;labelBackgroundColor=none;whiteSpace=wrap;fontColor=default;" vertex="1" parent="1">
          <mxGeometry x="-440" y="10" width="932" height="110" as="geometry" />
        </mxCell>
        <mxCell id="JXL4q3yM0kGkyvvFwsb1-171" value="" style="shape=tableRow;horizontal=0;startSize=0;swimlaneHead=0;swimlaneBody=0;strokeColor=inherit;top=0;left=0;bottom=0;right=0;collapsible=0;dropTarget=0;fillColor=none;points=[[0,0.5],[1,0.5]];portConstraint=eastwest;fontSize=16;" vertex="1" parent="JXL4q3yM0kGkyvvFwsb1-170">
          <mxGeometry y="30" width="932" height="38" as="geometry" />
        </mxCell>
        <mxCell id="JXL4q3yM0kGkyvvFwsb1-172" value="Autegry_id" style="shape=partialRectangle;html=1;whiteSpace=wrap;connectable=0;strokeColor=inherit;overflow=hidden;fillColor=none;top=0;left=0;bottom=0;right=0;pointerEvents=1;fontSize=16;" vertex="1" parent="JXL4q3yM0kGkyvvFwsb1-171">
          <mxGeometry width="156" height="38" as="geometry">
            <mxRectangle width="156" height="38" as="alternateBounds" />
          </mxGeometry>
        </mxCell>
        <mxCell id="JXL4q3yM0kGkyvvFwsb1-173" value="date" style="shape=partialRectangle;html=1;whiteSpace=wrap;connectable=0;strokeColor=inherit;overflow=hidden;fillColor=none;top=0;left=0;bottom=0;right=0;pointerEvents=1;fontSize=16;" vertex="1" parent="JXL4q3yM0kGkyvvFwsb1-171">
          <mxGeometry x="156" width="156" height="38" as="geometry">
            <mxRectangle width="156" height="38" as="alternateBounds" />
          </mxGeometry>
        </mxCell>
        <mxCell id="JXL4q3yM0kGkyvvFwsb1-174" value="payment" style="shape=partialRectangle;html=1;whiteSpace=wrap;connectable=0;strokeColor=inherit;overflow=hidden;fillColor=none;top=0;left=0;bottom=0;right=0;pointerEvents=1;fontSize=16;" vertex="1" parent="JXL4q3yM0kGkyvvFwsb1-171">
          <mxGeometry x="312" width="155" height="38" as="geometry">
            <mxRectangle width="155" height="38" as="alternateBounds" />
          </mxGeometry>
        </mxCell>
        <mxCell id="JXL4q3yM0kGkyvvFwsb1-175" value="principal" style="shape=partialRectangle;html=1;whiteSpace=wrap;connectable=0;strokeColor=inherit;overflow=hidden;fillColor=none;top=0;left=0;bottom=0;right=0;pointerEvents=1;fontSize=16;" vertex="1" parent="JXL4q3yM0kGkyvvFwsb1-171">
          <mxGeometry x="467" width="155" height="38" as="geometry">
            <mxRectangle width="155" height="38" as="alternateBounds" />
          </mxGeometry>
        </mxCell>
        <mxCell id="JXL4q3yM0kGkyvvFwsb1-176" value="interest" style="shape=partialRectangle;html=1;whiteSpace=wrap;connectable=0;strokeColor=inherit;overflow=hidden;fillColor=none;top=0;left=0;bottom=0;right=0;pointerEvents=1;fontSize=16;" vertex="1" parent="JXL4q3yM0kGkyvvFwsb1-171">
          <mxGeometry x="622" width="155" height="38" as="geometry">
            <mxRectangle width="155" height="38" as="alternateBounds" />
          </mxGeometry>
        </mxCell>
        <mxCell id="JXL4q3yM0kGkyvvFwsb1-177" value="taxes" style="shape=partialRectangle;html=1;whiteSpace=wrap;connectable=0;strokeColor=inherit;overflow=hidden;fillColor=none;top=0;left=0;bottom=0;right=0;pointerEvents=1;fontSize=16;" vertex="1" parent="JXL4q3yM0kGkyvvFwsb1-171">
          <mxGeometry x="777" width="155" height="38" as="geometry">
            <mxRectangle width="155" height="38" as="alternateBounds" />
          </mxGeometry>
        </mxCell>
        <mxCell id="JXL4q3yM0kGkyvvFwsb1-178" value="" style="shape=tableRow;horizontal=0;startSize=0;swimlaneHead=0;swimlaneBody=0;strokeColor=inherit;top=0;left=0;bottom=0;right=0;collapsible=0;dropTarget=0;fillColor=none;points=[[0,0.5],[1,0.5]];portConstraint=eastwest;fontSize=16;" vertex="1" parent="JXL4q3yM0kGkyvvFwsb1-170">
          <mxGeometry y="68" width="932" height="42" as="geometry" />
        </mxCell>
        <mxCell id="JXL4q3yM0kGkyvvFwsb1-179" style="shape=partialRectangle;html=1;whiteSpace=wrap;connectable=0;strokeColor=inherit;overflow=hidden;fillColor=none;top=0;left=0;bottom=0;right=0;pointerEvents=1;fontSize=16;" vertex="1" parent="JXL4q3yM0kGkyvvFwsb1-178">
          <mxGeometry width="156" height="42" as="geometry">
            <mxRectangle width="156" height="42" as="alternateBounds" />
          </mxGeometry>
        </mxCell>
        <mxCell id="JXL4q3yM0kGkyvvFwsb1-180" value="" style="shape=partialRectangle;html=1;whiteSpace=wrap;connectable=0;strokeColor=inherit;overflow=hidden;fillColor=none;top=0;left=0;bottom=0;right=0;pointerEvents=1;fontSize=16;" vertex="1" parent="JXL4q3yM0kGkyvvFwsb1-178">
          <mxGeometry x="156" width="156" height="42" as="geometry">
            <mxRectangle width="156" height="42" as="alternateBounds" />
          </mxGeometry>
        </mxCell>
        <mxCell id="JXL4q3yM0kGkyvvFwsb1-181" value="" style="shape=partialRectangle;html=1;whiteSpace=wrap;connectable=0;strokeColor=inherit;overflow=hidden;fillColor=none;top=0;left=0;bottom=0;right=0;pointerEvents=1;fontSize=16;" vertex="1" parent="JXL4q3yM0kGkyvvFwsb1-178">
          <mxGeometry x="312" width="155" height="42" as="geometry">
            <mxRectangle width="155" height="42" as="alternateBounds" />
          </mxGeometry>
        </mxCell>
        <mxCell id="JXL4q3yM0kGkyvvFwsb1-182" style="shape=partialRectangle;html=1;whiteSpace=wrap;connectable=0;strokeColor=inherit;overflow=hidden;fillColor=none;top=0;left=0;bottom=0;right=0;pointerEvents=1;fontSize=16;" vertex="1" parent="JXL4q3yM0kGkyvvFwsb1-178">
          <mxGeometry x="467" width="155" height="42" as="geometry">
            <mxRectangle width="155" height="42" as="alternateBounds" />
          </mxGeometry>
        </mxCell>
        <mxCell id="JXL4q3yM0kGkyvvFwsb1-183" style="shape=partialRectangle;html=1;whiteSpace=wrap;connectable=0;strokeColor=inherit;overflow=hidden;fillColor=none;top=0;left=0;bottom=0;right=0;pointerEvents=1;fontSize=16;" vertex="1" parent="JXL4q3yM0kGkyvvFwsb1-178">
          <mxGeometry x="622" width="155" height="42" as="geometry">
            <mxRectangle width="155" height="42" as="alternateBounds" />
          </mxGeometry>
        </mxCell>
        <mxCell id="JXL4q3yM0kGkyvvFwsb1-184" style="shape=partialRectangle;html=1;whiteSpace=wrap;connectable=0;strokeColor=inherit;overflow=hidden;fillColor=none;top=0;left=0;bottom=0;right=0;pointerEvents=1;fontSize=16;" vertex="1" parent="JXL4q3yM0kGkyvvFwsb1-178">
          <mxGeometry x="777" width="155" height="42" as="geometry">
            <mxRectangle width="155" height="42" as="alternateBounds" />
          </mxGeometry>
        </mxCell>
      </root>
    </mxGraphModel>
  </diagram>
</mxfile>
